<svg viewBox="0 0 18 18" fill="none" xmlns="http://www.w3.org/2000/svg">
<path fill-rule="evenodd" clip-rule="evenodd" d="M14.9696 3.00607C13.3908 1.42548 11.2912 0.554638 9.05446 0.553711C4.44535 0.553711 0.69421 4.30475 0.692356 8.9151C0.691738 10.3889 1.07674 11.8275 1.80853 13.0956L0.622215 17.4287L5.05509 16.2659C6.27653 16.9322 7.65164 17.2833 9.05106 17.2837H9.05456C13.6632 17.2837 17.4147 13.5323 17.4165 8.92179C17.4174 6.68738 16.5484 4.58655 14.9696 3.00607ZM9.05446 15.8715H9.05158C7.80449 15.871 6.5814 15.5358 5.51415 14.9027L5.26047 14.752L2.62993 15.4421L3.33206 12.8774L3.16675 12.6144C2.47101 11.5078 2.10362 10.2288 2.10424 8.91561C2.10568 5.08361 5.2236 1.966 9.05724 1.966C10.9137 1.96662 12.6587 2.69048 13.9709 4.00421C15.2831 5.31793 16.0053 7.06414 16.0047 8.92127C16.003 12.7536 12.8853 15.8715 9.05446 15.8715V15.8715ZM12.8668 10.6661C12.6579 10.5615 11.6306 10.0562 11.439 9.98636C11.2477 9.91664 11.1082 9.88193 10.9691 10.091C10.8297 10.3001 10.4294 10.7708 10.3074 10.9101C10.1855 11.0496 10.0637 11.0671 9.85475 10.9625C9.64577 10.8579 8.97258 10.6372 8.17446 9.92539C7.55339 9.37137 7.13409 8.68716 7.01214 8.47808C6.89039 8.26879 7.01111 8.16662 7.1038 8.05167C7.32999 7.7708 7.55648 7.47633 7.6261 7.33698C7.69583 7.19752 7.66091 7.07547 7.60859 6.97093C7.55648 6.86639 7.13862 5.83796 6.96455 5.41949C6.79481 5.01224 6.62271 5.06724 6.49437 5.06085C6.37263 5.05477 6.23328 5.05354 6.09392 5.05354C5.95467 5.05354 5.72828 5.10576 5.53671 5.31505C5.34524 5.52423 4.80553 6.02964 4.80553 7.05806C4.80553 8.08649 5.55422 9.07999 5.65866 9.21945C5.76309 9.35891 7.13203 11.4693 9.22791 12.3742C9.72641 12.5897 10.1155 12.7181 10.4191 12.8145C10.9196 12.9735 11.375 12.951 11.7351 12.8973C12.1365 12.8372 12.9711 12.3918 13.1454 11.9038C13.3195 11.4157 13.3195 10.9974 13.2671 10.9101C13.215 10.823 13.0757 10.7708 12.8668 10.6661V10.6661Z" fill="white"/>
</svg>
