<svg viewBox="0 0 18 18" fill="none" xmlns="http://www.w3.org/2000/svg">
<path d="M17.2352 4.005C16.7469 3.1365 16.2171 2.97675 15.1382 2.916C14.0604 2.84288 11.3503 2.8125 9.00243 2.8125C6.65006 2.8125 3.93881 2.84288 2.86218 2.91488C1.78556 2.97675 1.25456 3.13537 0.761808 4.005C0.258933 4.87237 0.000183105 6.36638 0.000183105 8.99663C0.000183105 8.99888 0.000183105 9 0.000183105 9C0.000183105 9.00225 0.000183105 9.00338 0.000183105 9.00338V9.00563C0.000183105 11.6246 0.258933 13.1299 0.761808 13.9883C1.25456 14.8568 1.78443 15.0143 2.86106 15.0874C3.93881 15.1504 6.65006 15.1875 9.00243 15.1875C11.3503 15.1875 14.0604 15.1504 15.1393 15.0885C16.2182 15.0154 16.7481 14.8579 17.2363 13.9894C17.7437 13.131 18.0002 11.6257 18.0002 9.00675C18.0002 9.00675 18.0002 9.00338 18.0002 9.00113C18.0002 9.00113 18.0002 8.99888 18.0002 8.99775C18.0002 6.36638 17.7437 4.87237 17.2352 4.005ZM6.75018 12.375V5.625L12.3752 9L6.75018 12.375Z" fill="black"/>
</svg>
