<svg viewBox="0 0 15 15" fill="none" xmlns="http://www.w3.org/2000/svg">
<path d="M14.9672 11.6223C14.9248 11.4944 14.6548 11.3061 14.1576 11.0577C14.0229 10.9795 13.831 10.8731 13.5826 10.7381C13.334 10.6031 13.1084 10.4788 12.9061 10.3651C12.7034 10.2515 12.5135 10.1414 12.3361 10.035C12.3077 10.0137 12.219 9.95169 12.0698 9.84848C11.9205 9.74557 11.7946 9.66919 11.6915 9.61938C11.5885 9.56986 11.4873 9.54494 11.3878 9.54494C11.2458 9.54494 11.0684 9.6462 10.8554 9.84848C10.6424 10.051 10.4471 10.271 10.2696 10.5092C10.0921 10.7472 9.90385 10.9672 9.7052 11.1696C9.50624 11.3721 9.34277 11.4733 9.21508 11.4733C9.15098 11.4733 9.07105 11.4554 8.97527 11.4201C8.87952 11.3846 8.80669 11.3542 8.75669 11.3297C8.70713 11.3047 8.6221 11.2551 8.50127 11.1803C8.38023 11.1057 8.31291 11.0649 8.29873 11.0577C7.32578 10.5179 6.49134 9.89994 5.79525 9.20415C5.09939 8.50795 4.4814 7.67358 3.94166 6.70052C3.93457 6.6863 3.89364 6.6188 3.81912 6.49813C3.7445 6.37735 3.69476 6.29223 3.66991 6.24238C3.64506 6.19272 3.61487 6.11988 3.57942 6.02402C3.54397 5.92816 3.52617 5.84831 3.52617 5.78432C3.52617 5.65656 3.62741 5.49312 3.82983 5.29424C4.03222 5.09547 4.25245 4.90719 4.49028 4.72976C4.72831 4.55234 4.94831 4.35696 5.15077 4.14398C5.35316 3.93088 5.45436 3.75341 5.45436 3.6114C5.45436 3.51203 5.4295 3.41073 5.37984 3.30778C5.33014 3.20461 5.2538 3.07871 5.15077 2.92949C5.04771 2.78035 4.98558 2.69166 4.96424 2.66311C4.85782 2.48568 4.74786 2.29572 4.63409 2.09329C4.52032 1.8909 4.39614 1.66531 4.26114 1.41676C4.12625 1.16833 4.0198 0.976497 3.94159 0.841571C3.69315 0.344517 3.50498 0.0745153 3.37711 0.0320524C3.32737 0.0107463 3.25274 0 3.15341 0C2.96154 0 2.71124 0.0354479 2.40233 0.106568C2.09329 0.177575 1.85012 0.252053 1.67255 0.3303C1.31743 0.479368 0.941049 0.912579 0.543286 1.62978C0.181083 2.29725 0 2.95789 0 3.61121C0 3.80282 0.0124254 3.98924 0.0372763 4.17051C0.0621272 4.35159 0.10653 4.55581 0.170523 4.78312C0.234404 5.01036 0.285934 5.17917 0.32489 5.28909C0.363882 5.39909 0.436681 5.59615 0.543249 5.88033C0.649667 6.16443 0.71366 6.33835 0.734966 6.40227C0.983512 7.09832 1.27825 7.7197 1.61911 8.26661C2.17994 9.17564 2.94528 10.1151 3.91468 11.0846C4.88413 12.054 5.82339 12.8193 6.7325 13.3803C7.27933 13.7212 7.90093 14.0159 8.59687 14.2646C8.66083 14.2858 8.83475 14.3496 9.11874 14.4564C9.40285 14.5629 9.59997 14.6357 9.70997 14.6748C9.82001 14.7139 9.98886 14.7654 10.2159 14.8294C10.4434 14.8934 10.6475 14.9378 10.8286 14.9629C11.0098 14.9874 11.1962 15 11.3879 15C12.0411 15 12.7018 14.8188 13.3694 14.4567C14.0865 14.0591 14.5196 13.6826 14.6688 13.3272C14.7472 13.1498 14.8215 12.9066 14.8925 12.5976C14.9637 12.2887 14.9991 12.0384 14.9991 11.8466C14.9993 11.7468 14.9886 11.6724 14.9672 11.6223Z" fill="#ffffff"/>
</svg>
