<svg viewBox="0 0 19 19" fill="none" xmlns="http://www.w3.org/2000/svg">
<path d="M17.9707 17.9706C18.3612 17.58 18.3612 16.9469 17.9707 16.5564L1.70723 0.292899C1.31671 -0.0976257 0.683546 -0.0976257 0.293021 0.292899C-0.0975029 0.683423 -0.0975029 1.31659 0.293021 1.70711L16.5565 17.9706C16.947 18.3611 17.5802 18.3611 17.9707 17.9706Z" fill="#fff"/>
<path d="M0.292893 17.9706C-0.0976311 17.58 -0.0976311 16.9469 0.292893 16.5563L16.5563 0.292893C16.9469 -0.0976311 17.58 -0.0976311 17.9706 0.292893C18.3611 0.683417 18.3611 1.31658 17.9706 1.70711L1.70711 17.9706C1.31658 18.3611 0.683417 18.3611 0.292893 17.9706Z" fill="#fff"/>
</svg>
