<svg width="60" height="60" viewBox="0 0 30 30" fill="none" xmlns="http://www.w3.org/2000/svg">
<path d="M22 10C22 13.866 18.866 17 15 17C11.134 17 8 13.866 8 10C8 6.13401 11.134 3 15 3C18.866 3 22 6.13401 22 10Z" fill="white"/>
<path d="M15 0C9.82271 0 5.625 4.19678 5.625 9.375C5.625 10.8252 5.95459 12.2003 6.54328 13.4253C6.57621 13.4949 15 30 15 30L23.3551 13.6304C24.007 12.3541 24.375 10.9076 24.375 9.375C24.375 4.19678 20.1782 0 15 0ZM15 15C11.8936 15 9.375 12.4805 9.375 9.375C9.375 6.26953 11.8936 3.75 15 3.75C18.1055 3.75 20.625 6.26953 20.625 9.375C20.625 12.4805 18.1055 15 15 15Z" fill="#FDDC5E"/>
</svg>
