<svg width="165" height="40" viewBox="0 0 165 40" fill="none" xmlns="http://www.w3.org/2000/svg">
<path d="M1.66 5H4.9V16.36H11.92V19H1.66V5ZM23.0675 16H16.5675L15.3275 19H12.0075L18.2475 5H21.4475L27.7075 19H24.3075L23.0675 16ZM22.0475 13.54L19.8275 8.18L17.6075 13.54H22.0475ZM42 5V19H39.34L32.36 10.5V19H29.16V5H31.84L38.8 13.5V5H42ZM45.3123 5H51.6723C53.1923 5 54.5323 5.29333 55.6923 5.88C56.8657 6.45333 57.7723 7.26667 58.4123 8.32C59.0657 9.37333 59.3923 10.6 59.3923 12C59.3923 13.4 59.0657 14.6267 58.4123 15.68C57.7723 16.7333 56.8657 17.5533 55.6923 18.14C54.5323 18.7133 53.1923 19 51.6723 19H45.3123V5ZM51.5123 16.34C52.9123 16.34 54.0257 15.9533 54.8523 15.18C55.6923 14.3933 56.1123 13.3333 56.1123 12C56.1123 10.6667 55.6923 9.61333 54.8523 8.84C54.0257 8.05333 52.9123 7.66 51.5123 7.66H48.5523V16.34H51.5123ZM61.8358 5H65.0758V19H61.8358V5ZM81.2383 5V19H78.5783L71.5983 10.5V19H68.3983V5H71.0783L78.0383 13.5V5H81.2383ZM94.0106 11.78H96.9706V17.46C96.2106 18.0333 95.3306 18.4733 94.3306 18.78C93.3306 19.0867 92.324 19.24 91.3106 19.24C89.8573 19.24 88.5506 18.9333 87.3906 18.32C86.2306 17.6933 85.3173 16.8333 84.6506 15.74C83.9973 14.6333 83.6706 13.3867 83.6706 12C83.6706 10.6133 83.9973 9.37333 84.6506 8.28C85.3173 7.17333 86.2373 6.31333 87.4106 5.7C88.584 5.07333 89.904 4.76 91.3706 4.76C92.5973 4.76 93.7106 4.96667 94.7106 5.38C95.7106 5.79333 96.5506 6.39333 97.2306 7.18L95.1506 9.1C94.1506 8.04667 92.944 7.52 91.5306 7.52C90.6373 7.52 89.844 7.70667 89.1506 8.08C88.4573 8.45333 87.9173 8.98 87.5306 9.66C87.144 10.34 86.9506 11.12 86.9506 12C86.9506 12.8667 87.144 13.64 87.5306 14.32C87.9173 15 88.4506 15.5333 89.1306 15.92C89.824 16.2933 90.6106 16.48 91.4906 16.48C92.424 16.48 93.264 16.28 94.0106 15.88V11.78ZM111.704 5C112.944 5 114.018 5.20667 114.924 5.62C115.844 6.03333 116.551 6.62 117.044 7.38C117.538 8.14 117.784 9.04 117.784 10.08C117.784 11.1067 117.538 12.0067 117.044 12.78C116.551 13.54 115.844 14.1267 114.924 14.54C114.018 14.94 112.944 15.14 111.704 15.14H108.884V19H105.644V5H111.704ZM111.524 12.5C112.498 12.5 113.238 12.2933 113.744 11.88C114.251 11.4533 114.504 10.8533 114.504 10.08C114.504 9.29333 114.251 8.69333 113.744 8.28C113.238 7.85333 112.498 7.64 111.524 7.64H108.884V12.5H111.524ZM128.614 16H122.114L120.874 19H117.554L123.794 5H126.994L133.254 19H129.854L128.614 16ZM127.594 13.54L125.374 8.18L123.154 13.54H127.594ZM143.972 11.78H146.932V17.46C146.172 18.0333 145.292 18.4733 144.292 18.78C143.292 19.0867 142.285 19.24 141.272 19.24C139.818 19.24 138.512 18.9333 137.352 18.32C136.192 17.6933 135.278 16.8333 134.612 15.74C133.958 14.6333 133.632 13.3867 133.632 12C133.632 10.6133 133.958 9.37333 134.612 8.28C135.278 7.17333 136.198 6.31333 137.372 5.7C138.545 5.07333 139.865 4.76 141.332 4.76C142.558 4.76 143.672 4.96667 144.672 5.38C145.672 5.79333 146.512 6.39333 147.192 7.18L145.112 9.1C144.112 8.04667 142.905 7.52 141.492 7.52C140.598 7.52 139.805 7.70667 139.112 8.08C138.418 8.45333 137.878 8.98 137.492 9.66C137.105 10.34 136.912 11.12 136.912 12C136.912 12.8667 137.105 13.64 137.492 14.32C137.878 15 138.412 15.5333 139.092 15.92C139.785 16.2933 140.572 16.48 141.452 16.48C142.385 16.48 143.225 16.28 143.972 15.88V11.78ZM160.781 16.4V19H149.941V5H160.521V7.6H153.161V10.64H159.661V13.16H153.161V16.4H160.781Z" fill="white"/>
<path d="M48.9256 35.1572C48.9256 34.8675 48.8084 34.6348 48.574 34.459C48.3429 34.2832 47.993 34.1465 47.5242 34.0488C47.0555 33.9479 46.6909 33.834 46.4305 33.707C46.1733 33.5768 45.9813 33.4189 45.8543 33.2334C45.7306 33.0479 45.6688 32.8232 45.6688 32.5596C45.6688 32.1429 45.8429 31.7995 46.1912 31.5293C46.5395 31.2559 46.9855 31.1191 47.5291 31.1191C48.1183 31.1191 48.5903 31.2656 48.9451 31.5586C49.3032 31.8483 49.4822 32.2275 49.4822 32.6963H48.8963C48.8963 32.387 48.7661 32.1299 48.5057 31.9248C48.2485 31.7197 47.923 31.6172 47.5291 31.6172C47.145 31.6172 46.8358 31.7035 46.6014 31.876C46.3703 32.0452 46.2547 32.2666 46.2547 32.54C46.2547 32.8037 46.3507 33.0088 46.5428 33.1553C46.7381 33.2985 47.0913 33.4303 47.6024 33.5508C48.1167 33.6712 48.5008 33.7998 48.7547 33.9365C49.0119 34.0732 49.2023 34.2376 49.326 34.4297C49.4497 34.6217 49.5115 34.8545 49.5115 35.1279C49.5115 35.5739 49.3309 35.9303 48.9695 36.1973C48.6115 36.4642 48.1427 36.5977 47.5633 36.5977C46.9481 36.5977 46.4484 36.4495 46.0643 36.1533C45.6834 35.8538 45.493 35.4762 45.493 35.0205H46.0789C46.1017 35.3623 46.2449 35.6292 46.5086 35.8213C46.7755 36.0101 47.1271 36.1045 47.5633 36.1045C47.9702 36.1045 48.299 36.015 48.5496 35.8359C48.8003 35.6569 48.9256 35.4307 48.9256 35.1572ZM51.4842 36.5H50.8983V31.2168H51.4842V36.5ZM50.7957 29.6885C50.7957 29.5778 50.8315 29.485 50.9031 29.4102C50.9748 29.332 51.0724 29.293 51.1961 29.293C51.3198 29.293 51.4175 29.332 51.4891 29.4102C51.5639 29.485 51.6014 29.5778 51.6014 29.6885C51.6014 29.7992 51.5639 29.8919 51.4891 29.9668C51.4175 30.0417 51.3198 30.0791 51.1961 30.0791C51.0724 30.0791 50.9748 30.0417 50.9031 29.9668C50.8315 29.8919 50.7957 29.7992 50.7957 29.6885ZM53.9842 29.8643V31.2168H55.0779V31.6953H53.9842V35.2158C53.9842 35.5088 54.0363 35.7269 54.1404 35.8701C54.2479 36.0133 54.4253 36.085 54.6727 36.085C54.7703 36.085 54.9282 36.0687 55.1463 36.0361L55.1707 36.5146C55.0177 36.57 54.8094 36.5977 54.5457 36.5977C54.1453 36.5977 53.854 36.4821 53.6717 36.251C53.4894 36.0166 53.3983 35.6732 53.3983 35.2207V31.6953H52.4266V31.2168H53.3983V29.8643H53.9842ZM58.3348 36.5977C57.8856 36.5977 57.4787 36.487 57.1141 36.2656C56.7527 36.0443 56.4712 35.7367 56.2693 35.3428C56.0675 34.9456 55.9666 34.5013 55.9666 34.0098V33.7998C55.9666 33.292 56.0643 32.8346 56.2596 32.4277C56.4582 32.0208 56.7332 31.7018 57.0848 31.4707C57.4363 31.2363 57.8172 31.1191 58.2274 31.1191C58.8686 31.1191 59.3764 31.3389 59.7508 31.7783C60.1284 32.2145 60.3172 32.8118 60.3172 33.5703V33.8975H56.5477V34.0098C56.5477 34.6087 56.7186 35.1084 57.0604 35.5088C57.4054 35.9059 57.8384 36.1045 58.3592 36.1045C58.6717 36.1045 58.9468 36.0475 59.1844 35.9336C59.4253 35.8197 59.6434 35.6374 59.8387 35.3867L60.2049 35.665C59.7752 36.2868 59.1518 36.5977 58.3348 36.5977ZM58.2274 31.6172C57.7879 31.6172 57.4168 31.7783 57.1141 32.1006C56.8146 32.4229 56.6323 32.8558 56.5672 33.3994H59.7361V33.3359C59.7199 32.8281 59.575 32.4147 59.3016 32.0957C59.0281 31.7767 58.6701 31.6172 58.2274 31.6172ZM64.5408 36.5H63.9549V29H64.5408V36.5ZM69.4676 36.5C69.409 36.334 69.3716 36.0882 69.3553 35.7627C69.1502 36.0296 68.8882 36.2363 68.5692 36.3828C68.2534 36.526 67.9181 36.5977 67.5633 36.5977C67.0555 36.5977 66.6437 36.4561 66.3279 36.1729C66.0154 35.8896 65.8592 35.5316 65.8592 35.0986C65.8592 34.5843 66.0724 34.1774 66.4988 33.8779C66.9285 33.5785 67.5259 33.4287 68.2908 33.4287H69.3504V32.8281C69.3504 32.4505 69.2332 32.1543 68.9988 31.9395C68.7677 31.7214 68.4292 31.6123 67.9832 31.6123C67.5763 31.6123 67.2394 31.7165 66.9725 31.9248C66.7055 32.1331 66.5721 32.3838 66.5721 32.6768L65.9861 32.6719C65.9861 32.252 66.1815 31.889 66.5721 31.583C66.9627 31.2738 67.4429 31.1191 68.0125 31.1191C68.6017 31.1191 69.0656 31.2673 69.4041 31.5635C69.7459 31.8564 69.9217 32.2666 69.9315 32.7939V35.2939C69.9315 35.805 69.9852 36.1875 70.0926 36.4414V36.5H69.4676ZM67.6317 36.0801C68.0223 36.0801 68.3706 35.9857 68.6766 35.7969C68.9858 35.6081 69.2104 35.3558 69.3504 35.04V33.8779H68.3055C67.7228 33.8844 67.2671 33.9919 66.9383 34.2002C66.6095 34.4053 66.4451 34.6885 66.4451 35.0498C66.4451 35.346 66.5542 35.5918 66.7723 35.7871C66.9936 35.9824 67.2801 36.0801 67.6317 36.0801ZM72.0506 31.2168L72.0701 32.1201C72.2687 31.7946 72.5161 31.5472 72.8123 31.3779C73.1085 31.2054 73.4357 31.1191 73.7938 31.1191C74.3602 31.1191 74.7817 31.2786 75.0584 31.5977C75.3351 31.9167 75.4751 32.3952 75.4783 33.0332V36.5H74.8973V33.0283C74.894 32.5563 74.7931 32.2048 74.5945 31.9736C74.3992 31.7425 74.0851 31.627 73.6522 31.627C73.2908 31.627 72.9702 31.7409 72.6902 31.9688C72.4136 32.1934 72.2085 32.4977 72.075 32.8818V36.5H71.494V31.2168H72.0506ZM76.7576 33.8096C76.7576 32.9893 76.9399 32.3366 77.3045 31.8516C77.6723 31.3633 78.1704 31.1191 78.7986 31.1191C79.5115 31.1191 80.0552 31.4007 80.4295 31.9639V29H81.0106V36.5H80.4637L80.4393 35.7969C80.0649 36.3307 79.5148 36.5977 78.7889 36.5977C78.1802 36.5977 77.6886 36.3535 77.3143 35.8652C76.9432 35.3737 76.7576 34.7113 76.7576 33.8779V33.8096ZM77.3484 33.9121C77.3484 34.5859 77.4835 35.1182 77.7537 35.5088C78.0239 35.8962 78.4048 36.0898 78.8963 36.0898C79.6157 36.0898 80.1268 35.7725 80.4295 35.1377V32.6572C80.1268 31.9704 79.619 31.627 78.9061 31.627C78.4145 31.627 78.032 31.8206 77.7586 32.208C77.4852 32.5921 77.3484 33.1602 77.3484 33.9121ZM83.2029 36.5H82.617V31.2168H83.2029V36.5ZM82.5145 29.6885C82.5145 29.5778 82.5503 29.485 82.6219 29.4102C82.6935 29.332 82.7912 29.293 82.9149 29.293C83.0386 29.293 83.1362 29.332 83.2078 29.4102C83.2827 29.485 83.3201 29.5778 83.3201 29.6885C83.3201 29.7992 83.2827 29.8919 83.2078 29.9668C83.1362 30.0417 83.0386 30.0791 82.9149 30.0791C82.7912 30.0791 82.6935 30.0417 82.6219 29.9668C82.5503 29.8919 82.5145 29.7992 82.5145 29.6885ZM85.3514 31.2168L85.3709 32.1201C85.5695 31.7946 85.8169 31.5472 86.1131 31.3779C86.4093 31.2054 86.7365 31.1191 87.0945 31.1191C87.6609 31.1191 88.0825 31.2786 88.3592 31.5977C88.6359 31.9167 88.7759 32.3952 88.7791 33.0332V36.5H88.1981V33.0283C88.1948 32.5563 88.0939 32.2048 87.8953 31.9736C87.7 31.7425 87.3859 31.627 86.9529 31.627C86.5916 31.627 86.271 31.7409 85.991 31.9688C85.7143 32.1934 85.5093 32.4977 85.3758 32.8818V36.5H84.7947V31.2168H85.3514ZM90.0584 33.8096C90.0584 32.9827 90.2407 32.3285 90.6053 31.8467C90.9731 31.3617 91.4712 31.1191 92.0994 31.1191C92.8188 31.1191 93.3657 31.4056 93.7401 31.9785L93.7693 31.2168H94.3162V36.3926C94.3162 37.0729 94.1258 37.6117 93.7449 38.0088C93.3641 38.4059 92.8481 38.6045 92.1971 38.6045C91.8292 38.6045 91.4777 38.5215 91.1424 38.3555C90.8104 38.1927 90.5483 37.9746 90.3563 37.7012L90.6834 37.3496C91.0968 37.8574 91.5884 38.1113 92.158 38.1113C92.6463 38.1113 93.0272 37.9665 93.3006 37.6768C93.574 37.3903 93.7156 36.9915 93.7254 36.4805V35.8164C93.3511 36.3372 92.8058 36.5977 92.0897 36.5977C91.4777 36.5977 90.9861 36.3535 90.6151 35.8652C90.244 35.377 90.0584 34.7178 90.0584 33.8877V33.8096ZM90.6492 33.9121C90.6492 34.5859 90.7843 35.1182 91.0545 35.5088C91.3247 35.8962 91.7055 36.0898 92.1971 36.0898C92.9165 36.0898 93.4259 35.7676 93.7254 35.123V32.667C93.5887 32.3285 93.3917 32.0713 93.1346 31.8955C92.8774 31.7165 92.5682 31.627 92.2068 31.627C91.7153 31.627 91.3328 31.8206 91.0594 32.208C90.7859 32.5921 90.6492 33.1602 90.6492 33.9121ZM102.519 33.9121C102.519 34.7357 102.337 35.39 101.972 35.875C101.608 36.3568 101.12 36.5977 100.508 36.5977C99.785 36.5977 99.2316 36.3438 98.8475 35.8359V38.5312H98.2664V31.2168H98.8084L98.8377 31.9639C99.2186 31.4007 99.7703 31.1191 100.493 31.1191C101.124 31.1191 101.619 31.3584 101.977 31.8369C102.339 32.3154 102.519 32.9795 102.519 33.8291V33.9121ZM101.933 33.8096C101.933 33.1357 101.795 32.6035 101.518 32.2129C101.242 31.8223 100.856 31.627 100.361 31.627C100.003 31.627 99.6955 31.7132 99.4383 31.8857C99.1811 32.0583 98.9842 32.3089 98.8475 32.6377V35.1719C98.9874 35.4746 99.1876 35.7057 99.4481 35.8652C99.7085 36.0247 100.016 36.1045 100.371 36.1045C100.862 36.1045 101.245 35.9092 101.518 35.5186C101.795 35.1247 101.933 34.555 101.933 33.8096ZM107.153 36.5C107.095 36.334 107.057 36.0882 107.041 35.7627C106.836 36.0296 106.574 36.2363 106.255 36.3828C105.939 36.526 105.604 36.5977 105.249 36.5977C104.741 36.5977 104.329 36.4561 104.013 36.1729C103.701 35.8896 103.545 35.5316 103.545 35.0986C103.545 34.5843 103.758 34.1774 104.184 33.8779C104.614 33.5785 105.211 33.4287 105.976 33.4287H107.036V32.8281C107.036 32.4505 106.919 32.1543 106.684 31.9395C106.453 31.7214 106.115 31.6123 105.669 31.6123C105.262 31.6123 104.925 31.7165 104.658 31.9248C104.391 32.1331 104.258 32.3838 104.258 32.6768L103.672 32.6719C103.672 32.252 103.867 31.889 104.258 31.583C104.648 31.2738 105.128 31.1191 105.698 31.1191C106.287 31.1191 106.751 31.2673 107.09 31.5635C107.431 31.8564 107.607 32.2666 107.617 32.7939V35.2939C107.617 35.805 107.671 36.1875 107.778 36.4414V36.5H107.153ZM105.317 36.0801C105.708 36.0801 106.056 35.9857 106.362 35.7969C106.671 35.6081 106.896 35.3558 107.036 35.04V33.8779H105.991C105.408 33.8844 104.953 33.9919 104.624 34.2002C104.295 34.4053 104.131 34.6885 104.131 35.0498C104.131 35.346 104.24 35.5918 104.458 35.7871C104.679 35.9824 104.966 36.0801 105.317 36.0801ZM108.945 33.8096C108.945 32.9827 109.127 32.3285 109.492 31.8467C109.86 31.3617 110.358 31.1191 110.986 31.1191C111.706 31.1191 112.252 31.4056 112.627 31.9785L112.656 31.2168H113.203V36.3926C113.203 37.0729 113.013 37.6117 112.632 38.0088C112.251 38.4059 111.735 38.6045 111.084 38.6045C110.716 38.6045 110.364 38.5215 110.029 38.3555C109.697 38.1927 109.435 37.9746 109.243 37.7012L109.57 37.3496C109.984 37.8574 110.475 38.1113 111.045 38.1113C111.533 38.1113 111.914 37.9665 112.187 37.6768C112.461 37.3903 112.602 36.9915 112.612 36.4805V35.8164C112.238 36.3372 111.693 36.5977 110.976 36.5977C110.364 36.5977 109.873 36.3535 109.502 35.8652C109.131 35.377 108.945 34.7178 108.945 33.8877V33.8096ZM109.536 33.9121C109.536 34.5859 109.671 35.1182 109.941 35.5088C110.211 35.8962 110.592 36.0898 111.084 36.0898C111.803 36.0898 112.313 35.7676 112.612 35.123V32.667C112.475 32.3285 112.278 32.0713 112.021 31.8955C111.764 31.7165 111.455 31.627 111.094 31.627C110.602 31.627 110.22 31.8206 109.946 32.208C109.673 32.5921 109.536 33.1602 109.536 33.9121ZM116.772 36.5977C116.323 36.5977 115.916 36.487 115.552 36.2656C115.19 36.0443 114.909 35.7367 114.707 35.3428C114.505 34.9456 114.404 34.5013 114.404 34.0098V33.7998C114.404 33.292 114.502 32.8346 114.697 32.4277C114.896 32.0208 115.171 31.7018 115.522 31.4707C115.874 31.2363 116.255 31.1191 116.665 31.1191C117.306 31.1191 117.814 31.3389 118.188 31.7783C118.566 32.2145 118.755 32.8118 118.755 33.5703V33.8975H114.985V34.0098C114.985 34.6087 115.156 35.1084 115.498 35.5088C115.843 35.9059 116.276 36.1045 116.797 36.1045C117.109 36.1045 117.384 36.0475 117.622 35.9336C117.863 35.8197 118.081 35.6374 118.276 35.3867L118.642 35.665C118.213 36.2868 117.589 36.5977 116.772 36.5977ZM116.665 31.6172C116.225 31.6172 115.854 31.7783 115.552 32.1006C115.252 32.4229 115.07 32.8558 115.005 33.3994H118.174V33.3359C118.157 32.8281 118.013 32.4147 117.739 32.0957C117.466 31.7767 117.108 31.6172 116.665 31.6172Z" fill="white"/>
</svg>
