<svg viewBox="0 0 15 15" fill="none" xmlns="http://www.w3.org/2000/svg">
<path d="M7.5 0C3.3645 0 0 3.3645 0 7.5C0 11.6355 3.3645 15 7.5 15C11.6355 15 15 11.6355 15 7.5C15 3.3645 11.6355 0 7.5 0ZM7.5 13.4041C4.24449 13.4041 1.59572 10.7557 1.59572 7.5C1.59572 4.24434 4.24449 1.59587 7.5 1.59587C10.7555 1.59587 13.4043 4.24434 13.4043 7.5C13.4043 10.7557 10.7555 13.4041 7.5 13.4041Z" fill="#FDDC5E"/>
<path d="M11.4088 7.26876H8.0383V3.21617C8.0383 2.87514 7.7618 2.59863 7.42076 2.59863C7.07973 2.59863 6.80322 2.87514 6.80322 3.21617V7.8863C6.80322 8.22734 7.07973 8.50384 7.42076 8.50384H11.4088C11.7499 8.50384 12.0264 8.22734 12.0264 7.8863C12.0264 7.54527 11.7499 7.26876 11.4088 7.26876Z" fill="#FDDC5E"/>
</svg>
