<svg viewBox="0 0 15 11" fill="none" xmlns="http://www.w3.org/2000/svg">
<path d="M9.26052 5.97762L13.0465 9.76364H1.95347L5.73948 5.97762L5.81019 5.90691L5.73948 5.8362L5.32171 5.41843L5.251 5.34772L5.18029 5.41842L1.69091 8.90752V1.69091H13.3091V8.90752L9.81971 5.41842L9.749 5.34772L9.67829 5.41843L9.26052 5.8362L9.18981 5.90691L9.26052 5.97762ZM13.7045 0.9H1.29545C1.07684 0.9 0.9 1.07684 0.9 1.29545V10.1591C0.9 10.3777 1.07684 10.5545 1.29545 10.5545H13.7045C13.9228 10.5545 14.1 10.3778 14.1 10.1591V1.29545C14.1 1.07677 13.9228 0.9 13.7045 0.9Z" fill="#FDDC5E" stroke="#FDDC5E" stroke-width="0.2"/>
<path d="M12.8119 1.49093H12.7705L12.7412 1.52022L7.49991 6.76148L2.25864 1.52022L2.22936 1.49093H2.18793H1.59082H1.49082V1.59093V1.82936V1.87078L1.52011 1.90007L7.22032 7.60028C7.37489 7.75485 7.62493 7.75485 7.77951 7.60028L13.4797 1.90007L13.509 1.87078V1.82936V1.59093V1.49093H13.409H12.8119Z" fill="#FDDC5E" stroke="#FDDC5E" stroke-width="0.2"/>
</svg>
