<svg viewBox="0 0 12 15" fill="none" xmlns="http://www.w3.org/2000/svg">
<path d="M5.52209 0C2.47736 0 0 2.47736 0 5.5224C0 6.31666 0.162568 7.07501 0.482945 7.77655C1.86362 10.7978 4.51076 13.9876 5.28937 14.8932C5.3477 14.9609 5.43275 14.9998 5.52224 14.9998C5.61174 14.9998 5.69679 14.9609 5.75512 14.8932C6.53342 13.9878 9.18056 10.7981 10.5617 7.77655C10.8822 7.07501 11.0446 6.31666 11.0446 5.5224C11.0443 2.47736 8.56698 0 5.52209 0ZM5.52209 8.39075C3.94047 8.39075 2.65359 7.10387 2.65359 5.52224C2.65359 3.94047 3.94047 2.65359 5.52209 2.65359C7.10371 2.65359 8.39059 3.94047 8.39059 5.52224C8.39075 7.10387 7.10387 8.39075 5.52209 8.39075Z" fill="#FDDC5E"/>
</svg>
