<svg viewBox="0 0 18 18" fill="none" xmlns="http://www.w3.org/2000/svg">
<path d="M13.4995 0.0037452L11.1653 0C8.54294 0 6.84824 1.73871 6.84824 4.42982V6.47227H4.50131C4.2985 6.47227 4.13428 6.63668 4.13428 6.83949V9.79876C4.13428 10.0016 4.29869 10.1658 4.50131 10.1658H6.84824V17.633C6.84824 17.8358 7.01247 18 7.21527 18H10.2773C10.4801 18 10.6444 17.8356 10.6444 17.633V10.1658H13.3885C13.5913 10.1658 13.7555 10.0016 13.7555 9.79876L13.7566 6.83949C13.7566 6.74211 13.7179 6.64886 13.6492 6.57994C13.5804 6.51103 13.4868 6.47227 13.3894 6.47227H10.6444V4.74086C10.6444 3.90868 10.8427 3.48622 11.9267 3.48622L13.4992 3.48566C13.7018 3.48566 13.866 3.32124 13.866 3.11863V0.370775C13.866 0.168347 13.702 0.00411972 13.4995 0.0037452Z" fill="white"/>
</svg>
