<svg viewBox="0 0 18 18" fill="none" xmlns="http://www.w3.org/2000/svg">
<path d="M9.00018 4.5C6.51506 4.5 4.50018 6.51487 4.50018 9C4.50018 11.4851 6.51506 13.5 9.00018 13.5C11.4853 13.5 13.5002 11.4851 13.5002 9C13.5002 6.51487 11.4853 4.5 9.00018 4.5ZM9.00018 11.8125C7.44993 11.8125 6.18768 10.5503 6.18768 9C6.18768 7.44863 7.44993 6.1875 9.00018 6.1875C10.5504 6.1875 11.8127 7.44863 11.8127 9C11.8127 10.5503 10.5504 11.8125 9.00018 11.8125Z" fill="white"/>
<path d="M13.8376 4.76175C14.1688 4.76175 14.4372 4.49329 14.4372 4.16212C14.4372 3.83096 14.1688 3.5625 13.8376 3.5625C13.5064 3.5625 13.238 3.83096 13.238 4.16212C13.238 4.49329 13.5064 4.76175 13.8376 4.76175Z" fill="white"/>
<path d="M12.3752 0H5.62518C2.51906 0 0.000183105 2.51888 0.000183105 5.625V12.375C0.000183105 15.4811 2.51906 18 5.62518 18H12.3752C15.4813 18 18.0002 15.4811 18.0002 12.375V5.625C18.0002 2.51888 15.4813 0 12.3752 0ZM16.3127 12.375C16.3127 14.5462 14.5464 16.3125 12.3752 16.3125H5.62518C3.45393 16.3125 1.68768 14.5462 1.68768 12.375V5.625C1.68768 3.45375 3.45393 1.6875 5.62518 1.6875H12.3752C14.5464 1.6875 16.3127 3.45375 16.3127 5.625V12.375Z" fill="white"/>
</svg>
